{
    "asset" : {
        "generator" : "Khronos glTF Blender I/O v3.2.40",
        "version" : "2.0"
    },
    "scene" : 0,
    "scenes" : [
        {
            "name" : "Scene",
            "nodes" : [
                0
            ]
        }
    ],
    "nodes" : [
        {
            "mesh" : 0,
            "name" : "Curve",
            "scale" : [
                50.51970291137695,
                50.51970291137695,
                50.51970291137695
            ]
        }
    ],
    "materials" : [
        {
            "doubleSided" : true,
            "name" : "ArrowMat",
            "pbrMetallicRoughness" : {
                "baseColorFactor" : [
                    0.8000000715255737,
                    0,
                    0.0004751227388624102,
                    1
                ],
                "metallicFactor" : 0,
                "roughnessFactor" : 0.5
            }
        }
    ],
    "meshes" : [
        {
            "name" : "Curve",
            "primitives" : [
                {
                    "attributes" : {
                        "POSITION" : 0,
                        "NORMAL" : 1,
                        "TEXCOORD_0" : 2
                    },
                    "indices" : 3,
                    "material" : 0
                }
            ]
        }
    ],
    "accessors" : [
        {
            "bufferView" : 0,
            "componentType" : 5126,
            "count" : 908,
            "max" : [
                0.009668908081948757,
                0.0010000000474974513,
                0.004932011943310499
            ],
            "min" : [
                -0.011087179183959961,
                -0.0010000000474974513,
                -0.005232278723269701
            ],
            "type" : "VEC3"
        },
        {
            "bufferView" : 1,
            "componentType" : 5126,
            "count" : 908,
            "type" : "VEC3"
        },
        {
            "bufferView" : 2,
            "componentType" : 5126,
            "count" : 908,
            "type" : "VEC2"
        },
        {
            "bufferView" : 3,
            "componentType" : 5123,
            "count" : 1752,
            "type" : "SCALAR"
        }
    ],
    "bufferViews" : [
        {
            "buffer" : 0,
            "byteLength" : 10896,
            "byteOffset" : 0
        },
        {
            "buffer" : 0,
            "byteLength" : 10896,
            "byteOffset" : 10896
        },
        {
            "buffer" : 0,
            "byteLength" : 7264,
            "byteOffset" : 21792
        },
        {
            "buffer" : 0,
            "byteLength" : 3504,
            "byteOffset" : 29056
        }
    ],
    "buffers" : [
        {
            "byteLength" : 32560,
            "uri" : "data:application/octet-stream;base64,"
        }
    ]
}
