{
    "asset" : {
        "generator" : "Khronos glTF Blender I/O v3.2.40",
        "version" : "2.0"
    },
    "scene" : 0,
    "scenes" : [
        {
            "name" : "Scene",
            "nodes" : [
                0
            ]
        }
    ],
    "nodes" : [
        {
            "mesh" : 0,
            "name" : "Curve.001",
            "rotation" : [
                0,
                0.7071068286895752,
                0,
                0.7071068286895752
            ],
            "scale" : [
                50.51970291137695,
                50.51970291137695,
                50.51970291137695
            ],
            "translation" : [
                -0.3705485165119171,
                0,
                0.11168686300516129
            ]
        }
    ],
    "materials" : [
        {
            "doubleSided" : true,
            "name" : "ArrowMatred2",
            "pbrMetallicRoughness" : {
                "baseColorFactor" : [
                    0.8000000715255737,
                    0.0004436300368979573,
                    0,
                    1
                ],
                "metallicFactor" : 0,
                "roughnessFactor" : 0.6909090876579285
            }
        }
    ],
    "meshes" : [
        {
            "name" : "Curve.001",
            "primitives" : [
                {
                    "attributes" : {
                        "POSITION" : 0,
                        "NORMAL" : 1,
                        "TEXCOORD_0" : 2
                    },
                    "indices" : 3,
                    "material" : 0
                }
            ]
        }
    ],
    "accessors" : [
        {
            "bufferView" : 0,
            "componentType" : 5126,
            "count" : 18093,
            "max" : [
                0.007443037815392017,
                0.0010000000474974513,
                0.01700364053249359
            ],
            "min" : [
                -0.008876420557498932,
                -0.0010000000474974513,
                -0.003752447199076414
            ],
            "type" : "VEC3"
        },
        {
            "bufferView" : 1,
            "componentType" : 5126,
            "count" : 18093,
            "type" : "VEC3"
        },
        {
            "bufferView" : 2,
            "componentType" : 5126,
            "count" : 18093,
            "type" : "VEC2"
        },
        {
            "bufferView" : 3,
            "componentType" : 5123,
            "count" : 31440,
            "type" : "SCALAR"
        }
    ],
    "bufferViews" : [
        {
            "buffer" : 0,
            "byteLength" : 217116,
            "byteOffset" : 0
        },
        {
            "buffer" : 0,
            "byteLength" : 217116,
            "byteOffset" : 217116
        },
        {
            "buffer" : 0,
            "byteLength" : 144744,
            "byteOffset" : 434232
        },
        {
            "buffer" : 0,
            "byteLength" : 62880,
            "byteOffset" : 578976
        }
    ],
    "buffers" : [
        {
            "byteLength" : 641856,
            "uri" : "data:application/octet-stream;base64,"
        }
    ]
}
